<svg xmlns="http://www.w3.org/2000/svg" viewBox="0 0 361 191"><defs><style>.cls-1{fill:#f3c6f9;}.cls-2{fill:#aa4f6c;}.cls-3{fill:#ff61cf;}.cls-4{fill:#828282;}.cls-5{fill:#fff;}</style></defs><title>types</title><g id="Layer_2" data-name="Layer 2"><g id="Layer_1-2" data-name="Layer 1"><polygon class="cls-1" points="350 10 350 0 340 0 339 0 329 0 319 0 318 0 308 0 297 0 287 0 286 0 276 0 265 0 255 0 254 0 244 0 234 0 233 0 223 0 212 0 202 0 201 0 191 0 181 0 180 0 170 0 159 0 149 0 148 0 138 0 128 0 127 0 117 0 106 0 96 0 95 0 85 0 74 0 64 0 63 0 53 0 43 0 42 0 32 0 21 0 10 0 10 10 0 10 0 21 11 21 11 11 21 11 32 11 42 11 43 11 53 11 63 11 64 11 74 11 85 11 95 11 96 11 106 11 117 11 127 11 128 11 138 11 148 11 149 11 159 11 170 11 180 11 181 11 191 11 201 11 202 11 212 11 223 11 233 11 234 11 244 11 254 11 255 11 265 11 276 11 286 11 287 11 297 11 308 11 318 11 319 11 329 11 339 11 340 11 350 11 350 21 361 21 361 10 350 10"/><polygon class="cls-2" points="350 170 350 180 340 180 339 180 329 180 319 180 318 180 308 180 297 180 287 180 286 180 276 180 265 180 255 180 254 180 244 180 234 180 233 180 223 180 212 180 202 180 201 180 191 180 181 180 180 180 170 180 159 180 149 180 148 180 138 180 128 180 127 180 117 180 106 180 96 180 95 180 85 180 74 180 64 180 63 180 53 180 43 180 42 180 32 180 21 180 11 180 11 170 0 170 0 181 10 181 10 191 21 191 32 191 42 191 43 191 53 191 63 191 64 191 74 191 85 191 95 191 96 191 106 191 117 191 127 191 128 191 138 191 148 191 149 191 159 191 170 191 180 191 181 191 191 191 201 191 202 191 212 191 223 191 233 191 234 191 244 191 254 191 255 191 265 191 276 191 286 191 287 191 297 191 308 191 318 191 319 191 329 191 339 191 340 191 350 191 350 181 361 181 361 170 350 170"/><polygon class="cls-3" points="350 21 350 11 10 11 10 21 0 21 0 32 0 42 0 43 0 53 0 63 0 64 0 74 0 85 0 95 0 96 0 106 0 117 0 127 0 128 0 138 0 148 0 149 0 159 0 170 10 170 10 181 350 181 350 170 361 170 361 159 361 149 361 148 361 138 361 128 361 127 361 117 361 106 361 96 361 95 361 85 361 74 361 64 361 63 361 53 361 43 361 42 361 32 361 21 350 21"/><path class="cls-4" d="M199,60H189V50H178V60H167V50H156v74H146v11h21V103h22V81h10ZM178,81V92H167V71h11V61h10V81Z"/><polygon class="cls-4" points="104 50 93 50 82 50 82 60 61 60 61 71 82 71 82 124 72 124 72 135 82 135 83 135 93 135 93 71 104 71 104 50"/><polygon class="cls-4" points="146 92 146 71 146 50 135 50 135 71 135 92 125 92 125 71 125 50 114 50 114 71 114 92 104 92 104 103 125 103 125 124 114 124 114 135 136 135 136 124 136 103 146 103 146 92"/><polygon class="cls-4" points="284 71 294 71 295 71 305 71 305 60 295 60 295 50 284 50 284 60 263 60 263 71 263 81 252 81 252 92 263 92 263 103 284 103 284 92 274 92 274 71 284 71"/><polygon class="cls-4" points="294 113 294 114 284 114 284 124 263 124 263 135 284 135 295 135 295 124 305 124 305 113 305 92 295 92 295 81 284 81 284 92 294 92 294 113"/><polygon class="cls-4" points="252 113 241 113 241 124 221 124 221 103 242 103 242 92 242 81 231 81 231 92 221 92 221 71 252 71 252 61 252 60 252 50 241 50 241 60 221 60 221 50 210 50 210 92 210 103 210 124 199 124 199 135 210 135 220 135 221 135 252 135 252 124 263 124 263 113 252 113"/><path class="cls-5" d="M178,50H146v74h11V92h21V82h11V60H178Zm0,21V81H157V61h21Z"/><polygon class="cls-5" points="82 50 72 50 61 50 61 61 72 61 72 71 72 81 72 82 72 92 72 103 72 113 72 114 72 124 83 124 83 114 83 113 83 103 83 92 83 82 83 81 83 71 83 61 93 61 93 50 83 50 82 50"/><polygon class="cls-5" points="114 81 114 71 114 61 114 60 114 50 103 50 103 60 103 61 103 71 103 81 103 82 103 92 114 92 114 82 114 81"/><polygon class="cls-5" points="114 103 114 113 114 114 114 124 125 124 125 114 125 113 125 103 125 92 114 92 114 103"/><polygon class="cls-5" points="125 60 125 61 125 71 125 81 125 82 125 92 136 92 136 82 136 81 136 71 136 61 136 60 136 50 125 50 125 60"/><polygon class="cls-5" points="221 50 220 50 210 50 199 50 199 60 199 61 199 71 199 81 199 82 199 92 199 103 199 113 199 114 199 124 210 124 220 124 221 124 231 124 242 124 242 113 231 113 221 113 220 113 210 113 210 103 210 92 220 92 221 92 231 92 231 81 221 81 220 81 210 81 210 71 210 61 220 61 221 61 231 61 242 61 242 50 231 50 221 50"/><polygon class="cls-5" points="284 113 274 113 273 113 263 113 263 103 252 103 252 114 263 114 263 124 273 124 274 124 284 124 284 114 295 114 295 103 295 92 284 92 284 103 284 113"/><polygon class="cls-5" points="295 71 295 60 284 60 284 50 274 50 273 50 263 50 263 60 252 60 252 71 252 82 263 82 263 92 273 92 274 92 284 92 284 81 274 81 273 81 263 81 263 71 263 61 273 61 274 61 284 61 284 71 295 71"/></g></g></svg>