<svg xmlns="http://www.w3.org/2000/svg" viewBox="0 0 202 201"><defs><style>.cls-1{fill:#fff;}.cls-2{fill:#fe8080;}.cls-3{fill:#fe0000;}</style></defs><title>Asset 13</title><g id="Layer_2" data-name="Layer 2"><g id="Layer_1-2" data-name="Layer 1"><polygon class="cls-1" points="118 120.67 118 96 18 96 18 142 34 142 34 166.67 134 166.67 134 120.67 118 120.67"/><rect class="cls-1" x="34" y="151" width="17" height="17"/><polygon class="cls-1" points="101 167 68 167 68 184 135 184 135 167 168 167 168 134 101 134 101 167"/><rect class="cls-1" x="168" y="117" width="17" height="17"/><polygon class="cls-2" points="85 50 85 33 68 33 68 50 51 50 51 67 68 67 68 84 85 84 85 67 101 67 101 50 85 50"/><path class="cls-3" d="M168,67V33H135V17H68V33H34V67H17v34H34v16H68V101H85V84h33v17h17v16h33V101h17V67ZM84,67V84H68V67H51V50H68V34H84V50h17V67Z"/><polygon points="85 17 101 17 118 17 135 17 135 0 118 0 101 0 85 0 84 0 68 0 68 17 84 17 85 17"/><polygon points="151 34 152 34 168 34 168 50 168 67 185 67 185 50 185 33 168 33 168 17 152 17 151 17 135 17 135 34 151 34"/><polygon points="185 67 185 84 185 100 168 100 168 117 185 117 185 134 202 134 202 117 202 101 202 100 202 84 202 67 185 67"/><polygon points="34 117 34 100 17 100 17 83 17 67 34 67 34 50 34 34 51 34 68 34 68 17 51 17 34 17 34 33 17 33 17 50 17 66 0 66 0 83 0 100 0 117 0 134 17 134 17 117 34 117"/><polygon points="151 117 135 117 135 100 118 100 118 84 101 84 84 84 84 100 68 100 68 117 51 117 34 117 34 134 51 134 68 134 84 134 84 151 101 151 118 151 118 134 101 134 85 134 85 117 85 101 101 101 118 101 118 117 118 134 135 134 151 134 152 134 168 134 168 117 152 117 151 117"/><polygon points="51 167 34 167 34 151 34 134 17 134 17 151 17 168 34 168 34 184 51 184 68 184 68 167 51 167"/><polygon points="101 184 85 184 84 184 68 184 68 201 84 201 85 201 101 201 118 201 135 201 135 184 118 184 101 184"/><polygon points="168 151 168 167 152 167 151 167 135 167 135 184 151 184 152 184 168 184 168 168 185 168 185 151 185 134 168 134 168 151"/></g></g></svg>