<svg xmlns="http://www.w3.org/2000/svg" viewBox="0 0 292 139.98"><defs><style>.cls-1{fill:#3d6cb8;}.cls-2{fill:#d0d1d4;}.cls-3{fill:#fbfbfb;}.cls-4{fill:#fdcb04;}</style></defs><title>title</title><g id="Layer_2" data-name="Layer 2"><g id="Layer_1-2" data-name="Layer 1"><path class="cls-1" d="M0,91V85c3.09-5,4.35-10.67,6.33-16.08,1.74-4.74,3.91-9,9.41-10.3-2.15-3-4.15-5.51-5.78-8.2C-1.8,31.07,9,9.89,31.49,7.81c16.58-1.53,31.77,4,47,9.18,2.82,1,5.45,3.38,5.27,6.13-.35,5.28,3.73,6.94,6.5,9.62,1.66,1.6,3.47,1.89,3.79-1.56.28-3.12,1.4-6.16,1.79-9.28.6-4.84,3.27-7.78,7.64-9.55,6-2.44,12.09-4.68,17.88-7.55C127,2,131.59,2.91,135.92,7a2.06,2.06,0,0,0,1.22,1.8l0,.07c.61,8.88,1.29,17.76,1.81,26.65.16,2.73.85,3.44,3,1.41,11-3.12,22.62-4.51,32.79-10.37a5.3,5.3,0,0,1,4.37-.41c10.54,3.72,22,0,32.14,4.76,0-6,0-11.34,0-16.64,0-6.73,3.37-10.31,9.86-11.46,5.61-1,11.46-.49,16.83-2.83h2c6.66,2.77,9.93,7.47,9.47,15-.25,4.1.63,8.26.93,12.41.2,2.85,1.14,4.55,4.5,4.47,11.34-.3,19.15,6.1,26,14.14l.63,1.38v0l1.38,1.84L284,51c5,13.74,5.41,27.79,3.09,42.1-1.23,7.58-4.61,10.93-12.11,11-6.31,0-12.62,0-18.92,0-3.45-3-7.21-2.8-11.49-1.93-11.18,2.26-22.85,1.09-33.89,4.74-2,.65-4.29.31-6.45.39-9.74.4-19.05-3.37-29-2.22-9.37,1.09-19,.21-28.46.18-1.59,0-3-.51-3.72,2C141.3,113,136.78,115,131.05,115c-4.5,0-9,0-13.5,0-9.16,0-12.19-2.59-13.77-11.46-.16-.93.5-2.5-1.54-2.48a6.7,6.7,0,0,0-6.13,6.62c.33,6.65.87,13.3,1,20,.21,8.25-3.75,12.22-12.1,12.35-6.33.09-12.67,0-19,0l0,0-2-.8c-4.32-2.65-6.37-6.33-6.28-11.58.09-5.64-.7-11.29-.79-16.94-.06-3.91-1.7-5-5.3-4.1-2.78.68-5.6.3-8.44.09-10.87-.83-21.1-4.3-31.44-7.37C6.87,97.79,2.73,95.47,0,91ZM69.82,41c.74-2.09,1.23-3.49,1.74-4.88,4.1-11.24,4.11-11.28-7.36-14.71C55.13,18.69,46,16,36.44,16.1c-8.63.12-16.71,2.14-20.81,11S15,43.19,20.37,50A56.77,56.77,0,0,0,33.46,62.27c4.84,3.21,9.83,6.19,14.68,9.4,1.61,1.06,3.78,2.36,2.56,4.72-1.09,2.11-3.41,1.75-5.39,1.26-8.69-2.13-17.56-3.85-25.19-8.9-2.85-1.89-4.12-.9-5.08,1.82-1.76,5-3.31,10.09-5.4,15-1.19,2.74-.11,3.57,2.1,4.23,6.83,2,13.56,4.45,20.49,6,10.92,2.48,22,4.33,32.77-3.68,0,3.25-.09,5.51,0,7.77.39,8.65,1,17.29,1.22,25.94.12,3.88,1.33,5.73,5.59,5.27a57.54,57.54,0,0,1,11,0c4,.34,5.7-.76,5.3-5.15-.71-7.62-.53-15.33-1.46-22.91-.55-4.55-.6-7,5-7.84,8.29-1.21,13.78-7.34,19-13.82,2.37,7.23.79,14.33,2,21.21.41,2.36.91,3.59,3.59,3.49,4.82-.17,9.67-.2,14.49,0,3.08.13,3.65-1.25,3.45-3.91-.31-4,.05-8-1-12.5,3.89,1.51,6.18,4.35,9.54,5.45a28.44,28.44,0,0,0,10.36.94c1.61-.08,3.34-.93,4.81-.58a43.31,43.31,0,0,0,19.27.27c4.91-1.13,8.86-.19,13.18.69,11.41,2.34,22.7,4.21,32.58-6.09-.55,4.3,1,5.26,4.19,4.77,5.25-.8,10.53-1.52,15.82-1.88,2.69-.18,3.24-1.18,3.21-3.65-.12-7.15-.86-14.29-.19-21.47a21.76,21.76,0,0,1,3.12-9.34c1.27-2.13,2.51-1.86,3.45.25a43.47,43.47,0,0,1,1.78,4.64c2.87,9,3.64,18.23,3.44,27.56-.06,3,.68,4.2,3.85,4,4.32-.25,8.66-.11,13,0,2,0,3.21-.24,3.6-2.82,1.29-8.58,2.12-17,.9-25.79-2.16-15.59-15.17-31-33.21-24.88-2.55.86-3.3-.4-3.47-2.59-.46-6-1.1-11.94-1.35-17.92-.49-11.94-.4-11.94-12.07-10.38a25.35,25.35,0,0,1-3.49.2c-4,0-5.83,1.32-5.59,5.91.46,8.42.13,16.88.13,25.47-2-.56-4.36-1.22-6.72-1.92C202.71,37.34,192.08,34.76,181,38c-.61.18-1.74,1.14-1.88-.36-.44-4.72-3.11-2.07-4.88-1.41-5.23,2-9.9,5.94-15.6,6.07-9.31.21-16.55,4.17-23,10.39-1.2,1.15-1.8,3.3-4.26,3.1-.8-13.47-1.68-26.85-2.33-40.25-.16-3.29-1-4.19-4.14-2.71-4.65,2.18-9.45,4-14.19,6-5.67,2.38-8.36,6.93-7.85,13.06.12,1.39.52,2.54,2,1.91,4.85-2.09,4,1.28,4.18,4,.17,3.46.54,6.91.89,11.17-8.4-6.13-17-8.33-26.71-5.08A14.76,14.76,0,0,1,83,41.62c.38-4.41-1.32-5.3-5.18-3.36C75.55,39.42,73.23,40.73,69.82,41Z"/><path class="cls-2" d="M284,51c4.56,2.61,4.53,7.56,5.87,11.76.58,1.84.51,3.89,2.18,5.27V92c-2.15.6-1.81,2.46-2.11,4-1.31,7-4.79,9.88-12,9.94-5.14,0-10.28,0-15.42,0-2.37,0-4.66-.2-6.46-2,6.3,0,12.61,0,18.92,0,7.5,0,10.88-3.38,12.11-11C289.36,78.76,288.91,64.71,284,51Z"/><path class="cls-3" d="M292,88v0Z"/><path class="cls-4" d="M69.82,41c3.41-.26,5.73-1.57,8-2.73,3.86-1.94,5.56-1,5.18,3.36A14.76,14.76,0,0,0,83.24,44C92.91,40.7,101.55,42.9,110,49c-.35-4.26-.72-7.71-.89-11.17-.14-2.74.67-6.11-4.18-4-1.48.63-1.88-.52-2-1.91-.51-6.13,2.18-10.68,7.85-13.06,4.74-2,9.54-3.85,14.19-6,3.18-1.48,4-.58,4.14,2.71.65,13.4,1.53,26.78,2.33,40.25,2.46.2,3.06-1.95,4.26-3.1,6.45-6.22,13.69-10.18,23-10.39,5.7-.13,10.37-4.09,15.6-6.07,1.77-.66,4.44-3.31,4.88,1.41.14,1.5,1.27.54,1.88.36,11.07-3.25,21.7-.67,32.29,2.45,2.36.7,4.74,1.36,6.72,1.92,0-8.59.33-17.05-.13-25.47-.24-4.59,1.62-5.92,5.59-5.91a25.35,25.35,0,0,0,3.49-.2C240.64,9.24,240.55,9.24,241,21.18c.25,6,.89,12,1.35,17.92.17,2.19.92,3.45,3.47,2.59,18-6.09,31.05,9.29,33.21,24.88,1.22,8.74.39,17.21-.9,25.79-.39,2.58-1.56,2.85-3.6,2.82-4.33-.07-8.67-.21-13,0-3.17.18-3.91-1-3.85-4,.2-9.33-.57-18.59-3.44-27.56A43.47,43.47,0,0,0,252.51,59c-.94-2.11-2.18-2.38-3.45-.25a21.76,21.76,0,0,0-3.12,9.34c-.67,7.18.07,14.32.19,21.47,0,2.47-.52,3.47-3.21,3.65-5.29.36-10.57,1.08-15.82,1.88-3.19.49-4.74-.47-4.19-4.77-9.88,10.3-21.17,8.43-32.58,6.09-4.32-.88-8.27-1.82-13.18-.69a43.31,43.31,0,0,1-19.27-.27c-1.47-.35-3.2.5-4.81.58a28.44,28.44,0,0,1-10.36-.94c-3.36-1.1-5.65-3.94-9.54-5.45,1,4.49.66,8.51,1,12.5.2,2.66-.37,4-3.45,3.91-4.82-.21-9.67-.18-14.49,0-2.68.1-3.18-1.13-3.59-3.49-1.18-6.88.4-14-2-21.21C105.47,87.82,100,94,91.69,95.16c-5.65.82-5.6,3.29-5,7.84.93,7.58.75,15.29,1.46,22.91.4,4.39-1.27,5.49-5.3,5.15a57.54,57.54,0,0,0-11,0c-4.26.46-5.47-1.39-5.59-5.27C66,117.15,65.4,108.51,65,99.86c-.1-2.26,0-4.52,0-7.77-10.81,8-21.85,6.16-32.77,3.68-6.93-1.57-13.66-4-20.49-6-2.21-.66-3.29-1.49-2.1-4.23,2.09-4.86,3.64-10,5.4-15,1-2.72,2.23-3.71,5.08-1.82,7.63,5,16.5,6.77,25.19,8.9,2,.49,4.3.85,5.39-1.26,1.22-2.36-1-3.66-2.56-4.72-4.85-3.21-9.84-6.19-14.68-9.4A56.77,56.77,0,0,1,20.37,50c-5.42-6.85-8.79-14.26-4.74-23s12.18-10.84,20.81-11C46,16,55.13,18.69,64.2,21.4c11.47,3.43,11.46,3.47,7.36,14.71C71.05,37.5,70.56,38.9,69.82,41Zm-6.71,3.67c-8-5.27-16.53-6.95-25.1-8.6-1.71-.32-3.92-.58-4.76,1.56-.74,1.86,1,3,2.09,4.16,6,6.1,14.27,8.65,21.13,13.39C58.83,51.51,56.47,45.62,63.11,44.66ZM220.53,69.5c2.35-6.21-1-8.3-6-9.36-2.1-.45-4.1-1.3-6.19-1.81-4.82-1.16-9.64-2.36-14.52-3.23-1.56-.28-4.16-1-4.59,1.49-.35,2.09,2.08,2.32,3.54,2.77A48.29,48.29,0,0,0,200,61C207.56,62.13,215,63.4,220.53,69.5ZM100.64,61.36c-8.26,4.4-10.12,3.4-10.93-6.26-3.35,2.37-6.32,4.64-5.09,9.23,1.17,4.38,4.38,6.12,8.63,6S100,66.78,100.64,61.36Zm54.17-6.46c-3.33,1.92-5.23,4.33-5.7,7.58-.52,3.55,1.86,5.38,4.7,6.79,1.35.66,3.39,1.51,3.89.1.84-2.36,1.15-5-1.41-7.18C154.32,60.56,155.19,57.85,154.81,54.9Zm30.91,20.33c5,1.87,9.86,4.41,16.49,2.17C196,76.21,191,74.89,185.72,75.23Z"/><path class="cls-2" d="M137.17,8.89c3.24,1,3.46,3.87,3.65,6.38.58,7.21.82,14.45,1.19,21.68-2.18,2-2.87,1.32-3-1.41C138.46,26.65,137.78,17.77,137.17,8.89Z"/><path class="cls-2" d="M281.54,47.4c1,.17,1.35.9,1.38,1.84Z"/><path class="cls-2" d="M135.92,7a1.92,1.92,0,0,1,1.22,1.8A2.06,2.06,0,0,1,135.92,7Z"/><path class="cls-3" d="M66,140l-2-.8Z"/><path class="cls-2" d="M280.9,46l.63,1.38Z"/><path class="cls-1" d="M63.11,44.66c-6.64,1-4.28,6.85-6.64,10.51-6.86-4.74-15.09-7.29-21.13-13.39-1.13-1.15-2.83-2.3-2.09-4.16.84-2.14,3-1.88,4.76-1.56C46.58,37.71,55.16,39.39,63.11,44.66Z"/><path class="cls-1" d="M220.53,69.5c-5.5-6.1-13-7.37-20.52-8.51a48.29,48.29,0,0,1-7.24-1.63c-1.46-.45-3.89-.68-3.54-2.77.43-2.52,3-1.77,4.59-1.49,4.88.87,9.7,2.07,14.52,3.23,2.09.51,4.09,1.36,6.19,1.81C219.53,61.2,222.88,63.29,220.53,69.5Z"/><path class="cls-1" d="M100.64,61.36c-.64,5.42-3.26,8.75-7.39,8.92s-7.46-1.57-8.63-6c-1.23-4.59,1.74-6.86,5.09-9.23C90.52,64.76,92.38,65.76,100.64,61.36Z"/><path class="cls-1" d="M154.81,54.9c.38,3-.49,5.66,1.48,7.29,2.56,2.15,2.25,4.82,1.41,7.18-.5,1.41-2.54.56-3.89-.1-2.84-1.41-5.22-3.24-4.7-6.79C149.58,59.23,151.48,56.82,154.81,54.9Z"/><path class="cls-1" d="M185.72,75.23c5.25-.34,10.29,1,16.49,2.17C195.58,79.64,190.69,77.1,185.72,75.23Z"/></g></g></svg>